<?xml version="1.0"?>
<svg width="24.999999999999996" height="24.999999999999996" xmlns="http://www.w3.org/2000/svg" xmlns:xlink="http://www.w3.org/1999/xlink">
 <title>noun_376938_cc</title>
 <desc>Created using Figma</desc>
 <defs>
  <path d="m12.5,0c-3.31521,0 -6.49463,1.31696 -8.83883,3.66117c-2.34421,2.3442 -3.66117,5.52362 -3.66117,8.83883c0,3.3152 1.31696,6.4946 3.66117,8.8388c2.3442,2.3442 5.52362,3.6612 8.83883,3.6612c3.3152,0 6.4946,-1.316999 8.8388,-3.6612c2.3442,-2.3442 3.6612,-5.523601 3.6612,-8.8388c0,-3.31521 -1.316999,-6.49463 -3.6612,-8.83883c-2.3442,-2.34421 -5.523601,-3.66117 -8.8388,-3.66117l0,0zm0,6c2.7555,0 5,2.2445 5,5c0,3.8348 -3.6467,7.353701 -4.6465,8.3535l-0.3535,0.3535l-0.3535,-0.3535c-1.0011,-1.001101 -4.6465,-4.5287 -4.6465,-8.3535c0,-2.7555 2.2445,-5 5,-5zm0,1c-2.2151,0 -4,1.7849 -4,4c0,2.9376 2.792,5.99 4,7.2285c1.209,-1.2381 4,-4.2797 4,-7.2285c0,-2.2151 -1.7849,-4 -4,-4zm0,2c1.0986,0 2,0.9013 2,2c0,1.0986 -0.9014,2 -2,2c-1.0986,0 -2,-0.9014 -2,-2c0,-1.0987 0.9014,-2 2,-2zm0,1c-0.5582,0 -1,0.4418 -1,1c0,0.5582 0.4418,1 1,1c0.5582,0 1,-0.4418 1,-1c0,-0.5582 -0.4418,-1 -1,-1z" id="path0_fill"/>
 </defs>
 <g>
  <title>background</title>
  <rect fill="none" id="canvas_background" height="402" width="582" y="-1" x="-1"/>
 </g>
 <g>
  <title>Layer 1</title>
  <use id="svg_1" x="0" y="0" fill="#2b4864" xlink:href="#path0_fill"/>
 </g>
</svg>