<?xml version="1.0"?>
<svg width="32" height="32" xmlns="http://www.w3.org/2000/svg">

 <g>
  <title>background</title>
  <rect fill="none" id="canvas_background" height="402" width="582" y="-1" x="-1"/>
 </g>
 <g>
  <title>Layer 1</title>
  <path fill="#2b4864" id="linkedin" d="m16,2c-3.9,0 -7.4,1.6 -9.9,4.1c-2.5,2.5 -4.1,6 -4.1,9.9c0,3.9 1.6,7.4 4.1,9.9c2.5,2.5 6,4.1 9.9,4.1c3.9,0 7.4,-1.6 9.9,-4.1c2.5,-2.5 4.1,-6 4.1,-9.9c0,-7.7 -6.299999,-14 -14,-14zm-4.6,21.5c0,0.4 -0.299999,0.700001 -0.7,0.700001l-2,0c-0.4,0 -0.7,-0.300001 -0.7,-0.700001l0,-9.6c0,-0.4 0.3,-0.7 0.7,-0.7l2,0c0.400001,0 0.7,0.3 0.7,0.7l0,9.6zm-1.7,-11.8c-1,0 -2,-0.9 -2,-2c0,-1.3 1.3,-2.3 2.7,-1.8c0.6,0.2 1,0.7 1.200001,1.3c0.4,1.400001 -0.700001,2.6 -1.900001,2.5zm14.500001,11.8c0,0.4 -0.300001,0.700001 -0.700001,0.700001l-2,0c-0.4,0 -0.700001,-0.300001 -0.700001,-0.700001l0,-5.6c0,-0.5 -0.199999,-1 -0.599998,-1.4c-0.400002,-0.4 -0.900002,-0.6 -1.5,-0.6c-1,0.1 -1.800001,1 -1.800001,2l0,5.5c0,0.4 -0.299999,0.700001 -0.699999,0.700001l-2.000001,0c-0.4,0 -0.7,-0.300001 -0.7,-0.700001l0,-9.599999c0,-0.400001 0.3,-0.7 0.7,-0.7l1.900001,0c0.4,0 0.699999,0.299999 0.699999,0.7l0,0.7c0,0 0,0 0,0c0.1,-0.1 0.1,-0.2 0.200001,-0.3c0.6,-0.9 1.6,-1.4 2.700001,-1.4l0.599998,0c2.1,0 3.800001,1.7 3.800001,3.8l0,6.9l0.1,0z" class="st0"/>
 </g>
</svg>