<?xml version="1.0"?>
<svg width="25" height="25" xmlns="http://www.w3.org/2000/svg" xmlns:xlink="http://www.w3.org/1999/xlink">
 <title>noun_555068_cc</title>
 <desc>Created using Figma</desc>
 <defs>
  <path d="m12.5,25c-6.90375,0 -12.5,-5.5963 -12.5,-12.5c0,-6.90375 5.59625,-12.5 12.5,-12.5c6.9037,0 12.5,5.59625 12.5,12.5c0,6.9037 -5.5963,12.5 -12.5,12.5zm2.6038,-10.9375c-0.6788,0.5463 -1.2113,1.2475 -1.55,2.049999c-2.101299,-0.924999 -3.7413,-2.565 -4.676298,-4.594999c0.8125,-0.41 1.512499,-0.9425 2.051298,-1.61125c-0.1375,-1.515 -0.918799,-2.8125 -2.061299,-3.64625c-1.52375,0.55125 -2.585001,1.966249 -2.61875,3.6325c0.115,4.7512 3.85755,8.59 8.555049,8.8563c1.771201,-0.021299 3.2662,-1.073801 3.9337,-2.5751c-0.832499,-1.183701 -2.129999,-1.9649 -3.614999,-2.1099l-0.018701,-0.0013z" id="path0_fill"/>
 </defs>
 <g>
  <title>background</title>
  <rect fill="none" id="canvas_background" height="402" width="582" y="-1" x="-1"/>
 </g>
 <g>
  <title>Layer 1</title>
  <use id="svg_1" x="0" y="0" fill="#2b4864" xlink:href="#path0_fill"/>
 </g>
</svg>