<?xml version="1.0"?>
<svg width="24.999999999999996" height="24.999999999999996" xmlns="http://www.w3.org/2000/svg" xmlns:xlink="http://www.w3.org/1999/xlink">
 <title>noun_99709_cc</title>
 <desc>Created using Figma</desc>
 <defs>
  <path d="m12.5,0c6.9034,0 12.5,5.59656 12.5,12.5c0,6.9034 -5.5966,12.5 -12.5,12.5c-6.90375,0 -12.5,-5.5966 -12.5,-12.5c0,-6.90344 5.59625,-12.5 12.5,-12.5zm7.5212,16.618401l-0.004,-8.04121l-4.790601,3.29721l4.7946,4.744zm-5.5831,-4.301201l-1.705,1.1425c-0.0725,0.0472 -0.1565,0.0716 -0.2387,0.0716c-0.0831,0 -0.1656,-0.024099 -0.2381,-0.0713l-1.7454,-1.1766l-4.93934,4.8869l13.86504,0l-4.9985,-4.8531zm-4.66966,-0.534699l-4.77875,-3.22187l0,8.028171l4.77875,-4.8063zm2.725659,0.7909l6.941201,-4.66278l-13.852181,0l6.91098,4.66278z" id="path0_fill"/>
 </defs>
 <g>
  <title>background</title>
  <rect fill="none" id="canvas_background" height="402" width="582" y="-1" x="-1"/>
 </g>
 <g>
  <title>Layer 1</title>
  <use id="svg_1" x="0" y="0" fill="#2b4864" xlink:href="#path0_fill"/>
 </g>
</svg>