<?xml version="1.0"?>
<svg width="25.000000000000004" height="25.000000000000004" xmlns="http://www.w3.org/2000/svg" xmlns:xlink="http://www.w3.org/1999/xlink">
 <title>noun_376853_cc</title>
 <desc>Created using Figma</desc>
 <defs>
  <path d="m12.5,0c-3.31521,0 -6.49463,1.31696 -8.83883,3.66117c-2.34421,2.3442 -3.66117,5.52362 -3.66117,8.83883c0,3.3152 1.31696,6.4946 3.66117,8.8388c2.3442,2.3442 5.52362,3.6612 8.83883,3.6612c3.3152,0 6.4946,-1.316999 8.8388,-3.6612c2.3442,-2.3442 3.6612,-5.523601 3.6612,-8.8388c0,-3.31521 -1.316999,-6.49463 -3.6612,-8.83883c-2.3442,-2.34421 -5.523601,-3.66117 -8.8388,-3.66117l0,0zm0,4.5c4.412399,0 8,3.5877 8,8c0,4.412399 -3.587601,8 -8,8c-4.41236,0 -8,-3.587601 -8,-8c0,-4.4123 3.58764,-8 8,-8zm0,1c-0.2313,0 -0.4847,0.11689 -0.7734,0.42969c-0.288799,0.3128 -0.5828,0.81082 -0.8321,1.44922c-0.233,0.5969 -0.422999,1.32089 -0.5644,2.12109l4.3398,0c-0.1414,-0.8002 -0.3314,-1.52419 -0.5644,-2.12109c-0.2493,-0.6384 -0.543301,-1.13642 -0.8321,-1.44922c-0.2887,-0.3128 -0.5421,-0.42969 -0.7734,-0.42969zm-1.9004,0.26562c-1.958489,0.5502 -3.56253,1.92728 -4.41991,3.73438l3.12695,0c0.152491,-0.9259 0.3756,-1.76557 0.65625,-2.48438c0.18501,-0.4737 0.397611,-0.8899 0.63671,-1.25zm3.8008,0c0.2391,0.3601 0.4517,0.7763 0.6367,1.25c0.2807,0.71881 0.5038,1.55848 0.656301,2.48438l3.126899,0c-0.857399,-1.8071 -2.461399,-3.18418 -4.419899,-3.73438zm-8.60743,4.73438c-0.18812,0.6338 -0.29297,1.3044 -0.29297,2c0,0.6963 0.1045,1.3657 0.29297,2l3.39453,0c-0.06723,-0.6428 -0.11523,-1.3044 -0.11523,-2c0,-0.6956 0.047999,-1.3575 0.11523,-2l-3.39453,0zm4.40233,0c-0.0715,0.6382 -0.123,1.3008 -0.123,2c0,0.6999 0.0514,1.3609 0.123,2l4.6094,0c0.0716,-0.6391 0.123,-1.3001 0.123,-2c0,-0.6992 -0.0515,-1.3618 -0.123,-2l-4.6094,0zm5.6172,0c0.0672,0.6425 0.1152,1.3044 0.1152,2c0,0.6956 -0.048,1.3572 -0.1152,2l3.394501,0c0.188499,-0.6343 0.292999,-1.3037 0.292999,-2c0,-0.6956 -0.104799,-1.3662 -0.292999,-2l-3.394501,0zm-9.63086,5c0.8574,1.805401 2.45919,3.182199 4.41606,3.732401c-0.2386,-0.3596 -0.4502,-0.773401 -0.63481,-1.246101c-0.28065,-0.7187 -0.503759,-1.5599 -0.65625,-2.4863l-3.125,0zm4.15036,0c0.1414,0.7999 0.3297,1.526699 0.5625,2.122999c0.2493,0.6385 0.543301,1.136501 0.8321,1.449301c0.2887,0.312799 0.5421,0.4277 0.7734,0.4277c0.2313,0 0.4847,-0.114901 0.7734,-0.4277c0.288799,-0.312799 0.5828,-0.810801 0.8321,-1.449301c0.2328,-0.5963 0.4211,-1.323099 0.5625,-2.122999l-4.336,0zm5.361401,0c-0.1525,0.926399 -0.375601,1.767599 -0.656301,2.4863c-0.1846,0.4727 -0.3962,0.886501 -0.6348,1.246101c1.9569,-0.550201 3.558701,-1.927 4.4161,-3.732401l-3.124999,0z" fill-rule="evenodd" id="path0_fill"/>
 </defs>
 <g>
  <title>background</title>
  <rect fill="none" id="canvas_background" height="402" width="582" y="-1" x="-1"/>
 </g>
 <g>
  <title>Layer 1</title>
  <use id="svg_1" x="0" y="0.048752" fill="#2b4864" xlink:href="#path0_fill"/>
 </g>
</svg>